<svg width="1094" height="344" viewBox="0 0 1094 344" fill="none" xmlns="http://www.w3.org/2000/svg">
<path fill-rule="evenodd" clip-rule="evenodd" d="M565.037 87.7377V50.69H580.431V47.5308H544.417V50.69H559.81V87.7377H565.037V87.7377ZM614.607 47.5308V87.7377H640.568V84.5785H619.833V67.864H637.639V65.107H619.833V50.69H640.568V47.5308H614.607ZM697.662 75.9053L703.176 87.7377H708.748L690.023 47.5308H687.151L670.149 87.7377H672.791L677.846 75.9053H697.662V75.9053ZM696.456 73.3207H678.937L687.208 53.964H687.438L696.456 73.3207V73.3207ZM758.374 87.7377V50.69H773.768V47.5308H737.754V50.69H753.147V87.7377H758.374V87.7377ZM813.17 70.9656C815.123 71.4827 817.421 71.8846 820.178 71.8846C829.54 71.8846 834.537 66.2556 834.537 59.5928C834.537 53.1023 830.287 47.5308 821.384 47.5308H807.943V87.7377H813.17V70.9656V70.9656ZM813.17 50.0582H819.201C825.692 50.0582 828.909 55.1702 828.909 59.8227C828.909 64.2453 826.036 69.3573 819.144 69.3573C816.789 69.3573 814.779 69.1852 813.17 68.6106V50.0582Z" fill="white"/>
<path fill-rule="evenodd" clip-rule="evenodd" d="M13.9262 342.264C18.0605 337.502 24.1695 324.367 27.3735 318.685C102.176 186.04 294.988 2.37219 315.809 8.30029C322.939 5.17429 303.695 31.3916 298.863 37.1712C258.984 80.3893 228.476 119.821 204.074 167.569C199.679 176.17 183.224 212.085 202.288 230.525C204.247 227.376 203.719 225.468 206.186 221.512C238.819 169.185 341.688 65.8167 396.213 30.6606C373.559 60.1021 348.672 91.3245 329.459 122.559C301.45 168.714 282.544 209.453 305.646 223.624C330.459 238.845 368.859 193.263 456.679 160.962C472.383 154.628 498.389 142.55 516.3 140.837C513.85 144.944 510.734 148.087 507.426 152.736C492.739 173.382 469.551 231.573 495.175 226.304C507.733 223.72 572.182 155.185 622.757 140.839C610.426 155.53 582.419 189.718 590.082 216.524C595.612 235.868 613.356 221.154 622.862 214.32C657.638 183.052 763.189 128.562 804.49 130.815C817.062 131.5 747.051 189.427 764.823 219.87C777.543 240.493 803.041 198.484 843.836 175.157C867.604 159.16 888.442 149.019 900.437 144.747C900.248 145.091 900.087 145.554 899.698 145.895C890.898 153.629 853.716 187.973 866.414 218.187C868.901 224.103 875.568 228.201 885.862 223.066C912.252 209.902 931.102 195.65 960.564 187.875C976.398 182.553 990.105 187.759 990.105 175.445C944.112 171.661 884.716 214.658 878.233 213.5C880.845 191.107 913.684 159.135 928.986 145.315C945.76 132.201 940.497 132.352 934.949 121.117C910.085 122.419 837.691 166.536 812.747 185.053C806.04 190.032 782.532 211.251 778.169 213.43C780.804 196.143 797.516 179.76 807.605 165.871C815.334 155.23 839.049 129.473 821.275 123.686C803.115 117.968 766.806 128.68 749.12 134.523C720.47 143.988 695.924 157.754 671.393 170.725C651.943 181.01 618.452 204.811 602.21 215.351C607.257 191.574 651.568 139.633 655.253 126.488C642.48 118.847 624.168 129.39 612.156 134.488C586.246 145.484 562.684 160.821 540.599 176.926C535.659 180.529 505.262 204.219 504.465 205.815C516.338 175.388 546.667 121.24 583.241 127.77C591.638 128.06 600.396 134.474 605.274 129.484C589.717 113.832 551.917 117.999 537.084 125.398C526.586 130.634 528.107 129.011 516.871 131.315C491.978 136.42 462.361 148.037 439.906 157.226C416.212 166.922 391.032 179.93 370.814 192.123C360.925 198.086 324.376 216.149 315.354 217.1C274.831 217.517 425.904 37.625 427.631 6.32489C427.817 2.95639 413.01 8.43269 403.637 14.9564C338.235 58.7746 262.228 134.308 207.752 204.423C237.862 128.683 347.291 23.1173 318.569 0.457398C296.299 -7.7965 130.904 147.048 110.144 169.473C78.6936 203.445 16.0233 278.125 1.86991 316.694C-2.95469 329.842 9.57842 347.414 13.9262 342.264V342.264Z" fill="white"/>
<path fill-rule="evenodd" clip-rule="evenodd" d="M887.283 84.1895C887.043 72.4529 894.844 51.5896 877.733 41.2908C876.953 40.7695 876.305 40.2624 875.153 40.0869L873.091 40.2955C871.354 40.5736 861.383 86.9632 877.356 94.8418C890.048 98.4783 1036.33 16.5761 1093.08 17.3281C1090.44 13.4707 1082.58 9.31088 1070.74 2.42549C1040.32 -15.2587 918.203 74.3093 887.283 84.1895V84.1895Z" fill="white"/>
</svg>
